<?xml version="1.0" encoding="us-ascii" standalone="no"?><svg xmlns="http://www.w3.org/2000/svg" xmlns:xlink="http://www.w3.org/1999/xlink" contentStyleType="text/css" height="478px" preserveAspectRatio="none" style="width:717px;height:478px;background:#FFFFFF;" version="1.1" viewBox="0 0 717 478" width="717px" zoomAndPan="magnify"><defs/><g><text fill="#000000" font-family="Open Sans" font-size="14" font-weight="bold" lengthAdjust="spacing" textLength="54" x="10" y="24.9639">commit</text><line style="stroke:#181818;stroke-width:1.5;" x1="40" x2="40" y1="85.5981" y2="85.5981"/><rect fill="none" height="29.0654" style="stroke:#181818;stroke-width:0.5;" width="34" x="64" y="71.0654"/><text fill="#000000" font-family="Open Sans" font-size="14" lengthAdjust="spacing" textLength="24" x="69" y="91.0293">doc</text><line style="stroke:#181818;stroke-width:1.5;" x1="40" x2="64" y1="85.5981" y2="85.5981"/><line style="stroke:#181818;stroke-width:1.5;" x1="98" x2="160" y1="85.5981" y2="85.5981"/><rect fill="none" height="29.0654" style="stroke:#181818;stroke-width:0.5;" width="36" x="64" y="110.1309"/><text fill="#000000" font-family="Open Sans" font-size="14" lengthAdjust="spacing" textLength="26" x="69" y="130.0947">feat</text><path d="M52,112.6636 C52,121.6636 55,124.6636 64,124.6636 " fill="none" style="stroke:#181818;stroke-width:1.5;"/><line style="stroke:#181818;stroke-width:1.5;" x1="100" x2="136" y1="124.6636" y2="124.6636"/><path d="M116,124.6636 L116,121.6636 L122,124.6636 L116,127.6636 L116,124.6636 " fill="#181818" style="stroke:#181818;stroke-width:1.5;"/><path d="M148,112.6636 C148,121.6636 145,124.6636 136,124.6636 " fill="none" style="stroke:#181818;stroke-width:1.5;"/><rect fill="none" height="29.0654" style="stroke:#181818;stroke-width:0.5;" width="26" x="64" y="149.1963"/><text fill="#000000" font-family="Open Sans" font-size="14" lengthAdjust="spacing" textLength="16" x="69" y="169.1602">fix</text><path d="M52,151.729 C52,160.729 55,163.729 64,163.729 " fill="none" style="stroke:#181818;stroke-width:1.5;"/><line style="stroke:#181818;stroke-width:1.5;" x1="90" x2="136" y1="163.729" y2="163.729"/><path d="M111,163.729 L111,160.729 L117,163.729 L111,166.729 L111,163.729 " fill="#181818" style="stroke:#181818;stroke-width:1.5;"/><path d="M148,151.729 C148,160.729 145,163.729 136,163.729 " fill="none" style="stroke:#181818;stroke-width:1.5;"/><rect fill="none" height="29.0654" style="stroke:#181818;stroke-width:0.5;" width="41" x="64" y="188.2617"/><text fill="#000000" font-family="Open Sans" font-size="14" lengthAdjust="spacing" textLength="31" x="69" y="208.2256">style</text><path d="M52,190.7944 C52,199.7944 55,202.7944 64,202.7944 " fill="none" style="stroke:#181818;stroke-width:1.5;"/><line style="stroke:#181818;stroke-width:1.5;" x1="105" x2="136" y1="202.7944" y2="202.7944"/><path d="M118.5,202.7944 L118.5,199.7944 L124.5,202.7944 L118.5,205.7944 L118.5,202.7944 " fill="#181818" style="stroke:#181818;stroke-width:1.5;"/><path d="M148,190.7944 C148,199.7944 145,202.7944 136,202.7944 " fill="none" style="stroke:#181818;stroke-width:1.5;"/><rect fill="none" height="29.0654" style="stroke:#181818;stroke-width:0.5;" width="38" x="64" y="227.3271"/><text fill="#000000" font-family="Open Sans" font-size="14" lengthAdjust="spacing" textLength="28" x="69" y="247.291">perf</text><path d="M52,229.8599 C52,238.8599 55,241.8599 64,241.8599 " fill="none" style="stroke:#181818;stroke-width:1.5;"/><line style="stroke:#181818;stroke-width:1.5;" x1="102" x2="136" y1="241.8599" y2="241.8599"/><path d="M117,241.8599 L117,238.8599 L123,241.8599 L117,244.8599 L117,241.8599 " fill="#181818" style="stroke:#181818;stroke-width:1.5;"/><path d="M148,229.8599 C148,238.8599 145,241.8599 136,241.8599 " fill="none" style="stroke:#181818;stroke-width:1.5;"/><rect fill="none" height="29.0654" style="stroke:#181818;stroke-width:0.5;" width="42" x="64" y="266.3926"/><text fill="#000000" font-family="Open Sans" font-size="14" lengthAdjust="spacing" textLength="32" x="69" y="286.3564">code</text><path d="M52,268.9253 C52,277.9253 55,280.9253 64,280.9253 " fill="none" style="stroke:#181818;stroke-width:1.5;"/><line style="stroke:#181818;stroke-width:1.5;" x1="106" x2="136" y1="280.9253" y2="280.9253"/><path d="M119,280.9253 L119,277.9253 L125,280.9253 L119,283.9253 L119,280.9253 " fill="#181818" style="stroke:#181818;stroke-width:1.5;"/><path d="M148,268.9253 C148,277.9253 145,280.9253 136,280.9253 " fill="none" style="stroke:#181818;stroke-width:1.5;"/><rect fill="none" height="29.0654" style="stroke:#181818;stroke-width:0.5;" width="72" x="64" y="305.458"/><text fill="#000000" font-family="Open Sans" font-size="14" lengthAdjust="spacing" textLength="62" x="69" y="325.4219">structure</text><path d="M52,307.9907 C52,316.9907 55,319.9907 64,319.9907 " fill="none" style="stroke:#181818;stroke-width:1.5;"/><line style="stroke:#181818;stroke-width:1.5;" x1="136" x2="136" y1="319.9907" y2="319.9907"/><path d="M148,307.9907 C148,316.9907 145,319.9907 136,319.9907 " fill="none" style="stroke:#181818;stroke-width:1.5;"/><rect fill="none" height="29.0654" style="stroke:#181818;stroke-width:0.5;" width="35" x="64" y="344.5234"/><text fill="#000000" font-family="Open Sans" font-size="14" lengthAdjust="spacing" textLength="25" x="69" y="364.4873">test</text><path d="M52,347.0562 C52,356.0562 55,359.0562 64,359.0562 " fill="none" style="stroke:#181818;stroke-width:1.5;"/><line style="stroke:#181818;stroke-width:1.5;" x1="99" x2="136" y1="359.0562" y2="359.0562"/><path d="M115.5,359.0562 L115.5,356.0562 L121.5,359.0562 L115.5,362.0562 L115.5,359.0562 " fill="#181818" style="stroke:#181818;stroke-width:1.5;"/><path d="M148,347.0562 C148,356.0562 145,359.0562 136,359.0562 " fill="none" style="stroke:#181818;stroke-width:1.5;"/><rect fill="none" height="29.0654" style="stroke:#181818;stroke-width:0.5;" width="27" x="64" y="383.5889"/><text fill="#000000" font-family="Open Sans" font-size="14" lengthAdjust="spacing" textLength="17" x="69" y="403.5527">git</text><path d="M52,386.1216 C52,395.1216 55,398.1216 64,398.1216 " fill="none" style="stroke:#181818;stroke-width:1.5;"/><line style="stroke:#181818;stroke-width:1.5;" x1="91" x2="136" y1="398.1216" y2="398.1216"/><path d="M111.5,398.1216 L111.5,395.1216 L117.5,398.1216 L111.5,401.1216 L111.5,398.1216 " fill="#181818" style="stroke:#181818;stroke-width:1.5;"/><path d="M148,386.1216 C148,395.1216 145,398.1216 136,398.1216 " fill="none" style="stroke:#181818;stroke-width:1.5;"/><rect fill="none" height="29.0654" style="stroke:#181818;stroke-width:0.5;" width="45" x="64" y="422.6543"/><text fill="#000000" font-family="Open Sans" font-size="14" lengthAdjust="spacing" textLength="35" x="69" y="442.6182">build</text><line style="stroke:#181818;stroke-width:1.5;" x1="109" x2="136" y1="437.187" y2="437.187"/><path d="M120.5,437.187 L120.5,434.187 L126.5,437.187 L120.5,440.187 L120.5,437.187 " fill="#181818" style="stroke:#181818;stroke-width:1.5;"/><path d="M52,425.187 C52,434.187 55,437.187 64,437.187 " fill="none" style="stroke:#181818;stroke-width:1.5;"/><line style="stroke:#181818;stroke-width:1.5;" x1="52" x2="52" y1="97.5981" y2="425.187"/><path d="M40,85.5981 C49,85.5981 52,88.5981 52,97.5981 " fill="none" style="stroke:#181818;stroke-width:1.5;"/><path d="M148,425.187 C148,434.187 145,437.187 136,437.187 " fill="none" style="stroke:#181818;stroke-width:1.5;"/><line style="stroke:#181818;stroke-width:1.5;" x1="148" x2="148" y1="97.5981" y2="425.187"/><path d="M148,97.5981 C148,88.5981 151,85.5981 160,85.5981 " fill="none" style="stroke:#181818;stroke-width:1.5;"/><line style="stroke:#181818;stroke-width:1.5;" x1="160" x2="180" y1="85.5981" y2="85.5981"/><path d="M188,77.5981 C188,83.5981 186,85.5981 180,85.5981 " fill="none" style="stroke:#181818;stroke-width:1.5;"/><line style="stroke:#181818;stroke-width:1.5;" x1="188" x2="188" y1="52.0654" y2="77.5981"/><path d="M188,52.0654 C188,46.0654 190,44.0654 196,44.0654 " fill="none" style="stroke:#181818;stroke-width:1.5;"/><line style="stroke:#181818;stroke-width:1.5;" x1="196" x2="412" y1="44.0654" y2="44.0654"/><path d="M280.4,44.0654 L280.4,41.0654 L286.4,44.0654 L280.4,47.0654 L280.4,44.0654 " fill="#181818" style="stroke:#181818;stroke-width:1.5;"/><path d="M420,77.5981 C420,83.5981 422,85.5981 428,85.5981 " fill="none" style="stroke:#181818;stroke-width:1.5;"/><line style="stroke:#181818;stroke-width:1.5;" x1="420" x2="420" y1="52.0654" y2="77.5981"/><path d="M412,44.0654 C418,44.0654 420,46.0654 420,52.0654 " fill="none" style="stroke:#181818;stroke-width:1.5;"/><line style="stroke:#181818;stroke-width:1.5;" x1="180" x2="195" y1="85.5981" y2="85.5981"/><line style="stroke:#181818;stroke-width:1.5;" x1="413" x2="428" y1="85.5981" y2="85.5981"/><line style="stroke:#181818;stroke-width:1.5;" x1="195" x2="195" y1="85.5981" y2="85.5981"/><rect fill="none" height="29.0654" style="stroke:#181818;stroke-width:0.5;" width="14" x="195" y="71.0654"/><text fill="#000000" font-family="Open Sans" font-size="14" lengthAdjust="spacing" textLength="4" x="200" y="91.0293">(</text><line style="stroke:#181818;stroke-width:1.5;" x1="209" x2="229" y1="85.5981" y2="85.5981"/><rect fill="#F1F1F1" height="29.0654" rx="5" ry="5" style="stroke:#181818;stroke-width:1.5;" width="86" x="229" y="71.0654"/><text fill="#000000" font-family="Open Sans" font-size="14" lengthAdjust="spacing" textLength="76" x="234" y="91.0293">component</text><line style="stroke:#181818;stroke-width:1.5;" x1="315" x2="335" y1="85.5981" y2="85.5981"/><path d="M343,77.5981 C343,83.5981 341,85.5981 335,85.5981 " fill="none" style="stroke:#181818;stroke-width:1.5;"/><line style="stroke:#181818;stroke-width:1.5;" x1="343" x2="343" y1="68.0654" y2="77.5981"/><path d="M343,68.0654 C343,62.0654 345,60.0654 351,60.0654 " fill="none" style="stroke:#181818;stroke-width:1.5;"/><line style="stroke:#181818;stroke-width:1.5;" x1="351" x2="363" y1="60.0654" y2="60.0654"/><path d="M371,77.5981 C371,83.5981 373,85.5981 379,85.5981 " fill="none" style="stroke:#181818;stroke-width:1.5;"/><line style="stroke:#181818;stroke-width:1.5;" x1="371" x2="371" y1="68.0654" y2="77.5981"/><path d="M363,60.0654 C369,60.0654 371,62.0654 371,68.0654 " fill="none" style="stroke:#181818;stroke-width:1.5;"/><line style="stroke:#181818;stroke-width:1.5;" x1="335" x2="350" y1="85.5981" y2="85.5981"/><line style="stroke:#181818;stroke-width:1.5;" x1="364" x2="379" y1="85.5981" y2="85.5981"/><rect fill="none" height="29.0654" style="stroke:#181818;stroke-width:0.5;" width="14" x="350" y="71.0654"/><text fill="#000000" font-family="Open Sans" font-size="14" lengthAdjust="spacing" textLength="4" x="355" y="91.0293">!</text><line style="stroke:#181818;stroke-width:1.5;" x1="379" x2="399" y1="85.5981" y2="85.5981"/><rect fill="none" height="29.0654" style="stroke:#181818;stroke-width:0.5;" width="14" x="399" y="71.0654"/><text fill="#000000" font-family="Open Sans" font-size="14" lengthAdjust="spacing" textLength="4" x="404" y="91.0293">)</text><line style="stroke:#181818;stroke-width:1.5;" x1="428" x2="448" y1="85.5981" y2="85.5981"/><path d="M456,77.5981 C456,83.5981 454,85.5981 448,85.5981 " fill="none" style="stroke:#181818;stroke-width:1.5;"/><line style="stroke:#181818;stroke-width:1.5;" x1="456" x2="456" y1="68.0654" y2="77.5981"/><path d="M456,68.0654 C456,62.0654 458,60.0654 464,60.0654 " fill="none" style="stroke:#181818;stroke-width:1.5;"/><line style="stroke:#181818;stroke-width:1.5;" x1="464" x2="577" y1="60.0654" y2="60.0654"/><path d="M507.2,60.0654 L507.2,57.0654 L513.2,60.0654 L507.2,63.0654 L507.2,60.0654 " fill="#181818" style="stroke:#181818;stroke-width:1.5;"/><path d="M585,77.5981 C585,83.5981 587,85.5981 593,85.5981 " fill="none" style="stroke:#181818;stroke-width:1.5;"/><line style="stroke:#181818;stroke-width:1.5;" x1="585" x2="585" y1="68.0654" y2="77.5981"/><path d="M577,60.0654 C583,60.0654 585,62.0654 585,68.0654 " fill="none" style="stroke:#181818;stroke-width:1.5;"/><line style="stroke:#181818;stroke-width:1.5;" x1="448" x2="463" y1="85.5981" y2="85.5981"/><line style="stroke:#181818;stroke-width:1.5;" x1="578" x2="593" y1="85.5981" y2="85.5981"/><line style="stroke:#181818;stroke-width:1.5;" x1="463" x2="463" y1="85.5981" y2="85.5981"/><rect fill="none" height="29.0654" style="stroke:#181818;stroke-width:0.5;" width="15" x="463" y="71.0654"/><text fill="#000000" font-family="Open Sans" font-size="14" lengthAdjust="spacing" textLength="5" x="468" y="91.0293">[</text><line style="stroke:#181818;stroke-width:1.5;" x1="478" x2="498" y1="85.5981" y2="85.5981"/><rect fill="#F1F1F1" height="29.0654" rx="5" ry="5" style="stroke:#181818;stroke-width:1.5;" width="45" x="498" y="71.0654"/><text fill="#000000" font-family="Open Sans" font-size="14" lengthAdjust="spacing" textLength="35" x="503" y="91.0293">issue</text><line style="stroke:#181818;stroke-width:1.5;" x1="543" x2="563" y1="85.5981" y2="85.5981"/><rect fill="none" height="29.0654" style="stroke:#181818;stroke-width:0.5;" width="15" x="563" y="71.0654"/><text fill="#000000" font-family="Open Sans" font-size="14" lengthAdjust="spacing" textLength="5" x="568" y="91.0293">]</text><line style="stroke:#181818;stroke-width:1.5;" x1="593" x2="613" y1="85.5981" y2="85.5981"/><rect fill="#F1F1F1" height="29.0654" rx="5" ry="5" style="stroke:#181818;stroke-width:1.5;" width="59" x="613" y="71.0654"/><text fill="#000000" font-family="Open Sans" font-size="14" lengthAdjust="spacing" textLength="49" x="618" y="91.0293">change</text><ellipse cx="14" cy="85.5981" fill="none" rx="4" ry="4" style="stroke:#181818;stroke-width:2.0;"/><ellipse cx="702" cy="85.5981" fill="#181818" rx="4" ry="4" style="stroke:#181818;stroke-width:1.0;"/><line style="stroke:#181818;stroke-width:1.5;" x1="18" x2="40" y1="85.5981" y2="85.5981"/><line style="stroke:#181818;stroke-width:1.5;" x1="672" x2="698" y1="85.5981" y2="85.5981"/><path d="M683,85.5981 L683,82.5981 L689,85.5981 L683,88.5981 L683,85.5981 " fill="#181818" style="stroke:#181818;stroke-width:1.5;"/><!--SRC=[HL3BJiCm4BpxAnQV4gcjqeSg58HKIWkYD0BHnwNgmKqsmI9PHtvKLEh7uoGWBjxrZ6SzEpDZXRPuefoPBqcrqAA237FXIfihiYGg1FvM8y56aE4iLLKbBTn3m3ELShW2pr7Ohf7VRJNsKcBRrQZpjabLXh-STgbrkhjPD9sqa5qzELbcFEp1WGUy1_wtMX6IRO0RVkm13vlpm0-UbSOuzD2nWT9FGGNUiHbIrkx3taj1TfUiuOpQI4Km78oYqMGm2JR2maEj8Ph2C8h7utWKmNAnXOOEMP2yRC4efrE4J7h3ykIiruTi9Su2FXnPMM4CJIghnUiV04iwIwseydRPQf_yFvXE-dEVsGQrTmBxX2swWBt2voAfY66tVUhVihLVmOd2pqPYZyhFrPSOdkS_]--></g></svg>