<svg width="414" height="418" xmlns="http://www.w3.org/2000/svg" xmlns:xlink="http://www.w3.org/1999/xlink" xml:space="preserve" overflow="hidden"><g transform="translate(-1860 -616)"><path d="M2217.22 776.514 2237.56 769.857 2240.28 769.311 2266.18 771.714 2270.86 793.739 2248.17 806.47 2245.47 807.077 2224.18 809.269 2224.2 841.626 2245.49 843.845 2248.2 844.454 2270.9 857.215 2266.25 879.234 2240.35 881.603 2237.63 881.054 2217.28 874.371 2204.17 903.924 2222.74 914.635 2224.96 916.294 2240.54 937.205 2227.36 955.411 2202.72 947.01 2200.46 945.399 2184.57 930.998 2160.6 952.635 2173.23 969.986 2174.59 972.408 2180.34 997.855 2160.91 1009.1 2141.8 991.38 2140.38 988.987 2131.7 969.357 2101.02 979.337 2105.52 1000.33 2105.78 1003.1 2100.72 1028.68 2078.4 1031.02 2068.11 1007.04 2067.79 1004.28 2067.82 982.816 2035.73 979.413 2031.33 1000.41 2030.44 1003.05 2015.44 1024.34 1994.09 1017.37 1994.41 991.287 1995.24 988.635 2003.97 969.047 1976.01 952.85 1963.47 970.23 1961.6 972.274 1939.25 985.598 1922.56 970.523 1933.43 946.84 1935.26 944.755 1951.19 930.431 1932.21 904.241 1913.69 914.995 1911.15 916.096 1885.32 919.146 1876.18 898.573 1895.72 881.386 1898.24 880.229 1918.61 873.646 1911.88 841.991 1890.6 844.259 1887.82 844.227 1862.98 836.476 1862.96 813.962 1887.8 806.243 1890.57 806.214 1911.86 808.509 1918.55 776.863 1898.17 770.253 1895.65 769.094 1876.08 751.881 1885.2 731.32 1911.04 734.403 1913.58 735.507 1932.11 746.284 1951.05 720.118 1935.11 705.774 1933.28 703.687 1922.37 679.991 1939.05 664.937 1961.41 678.289 1963.29 680.335 1975.85 697.731 2003.79 681.569 1995.03 661.97 1994.2 659.317 1993.85 633.233 2015.19 626.289 2030.22 647.602 2031.11 650.236 2035.53 671.243 2067.62 667.882 2067.57 646.416 2067.89 643.656 2078.14 619.694 2100.47 622.062 2105.56 647.65 2105.3 650.417 2100.82 671.402 2131.52 681.421 2140.18 661.801 2141.59 659.41 2160.68 641.714 2180.13 652.984 2174.4 678.423 2173.04 680.844 2160.44 698.179 2184.43 719.846 2200.31 705.464 2202.57 703.857 2227.19 695.487 2240.4 713.71 2224.85 734.601 2222.63 736.258 2204.08 746.946Z" stroke="#000000" stroke-width="5.45705" stroke-miterlimit="8" fill="#B0B0B0" fill-rule="evenodd"/><path d="M2133.79 804.166 2153.76 797.636 2168.79 798.685 2207.51 824.772 2207.51 827.24 2168.79 853.326 2153.76 854.376 2133.79 847.845 2119.28 873.021 2134.91 887.08 2141.52 900.646 2138.32 947.271 2136.19 948.505 2094.28 927.966 2085.86 915.45 2081.52 894.86 2052.49 894.86 2048.16 915.45 2039.73 927.966 1997.82 948.505 1995.69 947.271 1992.49 900.646 1999.1 887.08 2014.73 873.021 2000.22 847.845 1980.25 854.376 1965.22 853.326 1926.51 827.24 1926.51 824.772 1965.22 798.685 1980.25 797.636 2000.22 804.166 2014.73 778.99 1999.1 764.931 1992.49 751.365 1995.69 704.74 1997.82 703.506 2039.73 724.045 2048.16 736.561 2052.49 757.151 2081.52 757.151 2085.86 736.561 2094.28 724.045 2136.19 703.506 2138.32 704.74 2141.52 751.365 2134.91 764.931 2119.28 778.99Z" stroke="#000000" stroke-width="6.89088" stroke-miterlimit="8" fill="#636363" fill-rule="evenodd"/><path d="M2103.49 825.472C2103.49 845.906 2087.15 862.472 2066.99 862.472 2046.83 862.472 2030.49 845.906 2030.49 825.472 2030.49 805.037 2046.83 788.472 2066.99 788.472 2087.15 788.472 2103.49 805.037 2103.49 825.472Z" stroke="#000000" stroke-width="5.45705" stroke-miterlimit="8" fill="#FFFFFF" fill-rule="evenodd"/></g></svg>