<?xml version="1.0" encoding="us-ascii" standalone="no"?><svg xmlns="http://www.w3.org/2000/svg" xmlns:xlink="http://www.w3.org/1999/xlink" contentStyleType="text/css" height="358px" preserveAspectRatio="none" style="width:510px;height:358px;background:#FFFFFF;" version="1.1" viewBox="0 0 510 358" width="510px" zoomAndPan="magnify"><defs/><g><text fill="#000000" font-family="Open Sans" font-size="14" font-weight="bold" lengthAdjust="spacing" textLength="106" x="10" y="24.9639">child-issue-title</text><line style="stroke:#181818;stroke-width:1.5;" x1="40" x2="40" y1="53.5981" y2="53.5981"/><rect fill="none" height="29.0654" style="stroke:#181818;stroke-width:0.5;" width="27" x="64" y="39.0654"/><text fill="#000000" font-family="Open Sans" font-size="14" lengthAdjust="spacing" textLength="17" x="69" y="59.0293">PA</text><line style="stroke:#181818;stroke-width:1.5;" x1="40" x2="64" y1="53.5981" y2="53.5981"/><line style="stroke:#181818;stroke-width:1.5;" x1="91" x2="116" y1="53.5981" y2="53.5981"/><rect fill="none" height="29.0654" style="stroke:#181818;stroke-width:0.5;" width="28" x="64" y="78.1309"/><text fill="#000000" font-family="Open Sans" font-size="14" lengthAdjust="spacing" textLength="18" x="69" y="98.0947">CA</text><line style="stroke:#181818;stroke-width:1.5;" x1="92" x2="92" y1="92.6636" y2="92.6636"/><path d="M52,80.6636 C52,89.6636 55,92.6636 64,92.6636 " fill="none" style="stroke:#181818;stroke-width:1.5;"/><line style="stroke:#181818;stroke-width:1.5;" x1="52" x2="52" y1="65.5981" y2="80.6636"/><path d="M40,53.5981 C49,53.5981 52,56.5981 52,65.5981 " fill="none" style="stroke:#181818;stroke-width:1.5;"/><path d="M104,80.6636 C104,89.6636 101,92.6636 92,92.6636 " fill="none" style="stroke:#181818;stroke-width:1.5;"/><line style="stroke:#181818;stroke-width:1.5;" x1="104" x2="104" y1="65.5981" y2="80.6636"/><path d="M104,65.5981 C104,56.5981 107,53.5981 116,53.5981 " fill="none" style="stroke:#181818;stroke-width:1.5;"/><line style="stroke:#181818;stroke-width:1.5;" x1="116" x2="136" y1="53.5981" y2="53.5981"/><rect fill="none" height="29.0654" style="stroke:#181818;stroke-width:0.5;" width="14" x="136" y="39.0654"/><text fill="#000000" font-family="Open Sans" font-size="14" lengthAdjust="spacing" textLength="4" x="141" y="59.0293">:</text><line style="stroke:#181818;stroke-width:1.5;" x1="150" x2="170" y1="53.5981" y2="53.5981"/><rect fill="#F1F1F1" height="29.0654" rx="5" ry="5" style="stroke:#181818;stroke-width:1.5;" width="36" x="170" y="39.0654"/><text fill="#000000" font-family="Open Sans" font-size="14" lengthAdjust="spacing" textLength="26" x="175" y="59.0293">title</text><ellipse cx="14" cy="53.5981" fill="none" rx="4" ry="4" style="stroke:#181818;stroke-width:2.0;"/><ellipse cx="236" cy="53.5981" fill="#181818" rx="4" ry="4" style="stroke:#181818;stroke-width:1.0;"/><line style="stroke:#181818;stroke-width:1.5;" x1="18" x2="40" y1="53.5981" y2="53.5981"/><line style="stroke:#181818;stroke-width:1.5;" x1="206" x2="232" y1="53.5981" y2="53.5981"/><path d="M217,53.5981 L217,50.5981 L223,53.5981 L217,56.5981 L217,53.5981 " fill="#181818" style="stroke:#181818;stroke-width:1.5;"/><text fill="#000000" font-family="Open Sans" font-size="14" font-weight="bold" lengthAdjust="spacing" textLength="132" x="10" y="137.1602">child-issue-content</text><line style="stroke:#181818;stroke-width:1.5;" x1="40" x2="40" y1="165.7944" y2="165.7944"/><rect fill="none" height="29.0654" style="stroke:#181818;stroke-width:0.5;" width="110" x="64" y="151.2617"/><text fill="#000000" font-family="Open Sans" font-size="14" lengthAdjust="spacing" textLength="100" x="69" y="171.2256">Pending action</text><line style="stroke:#181818;stroke-width:1.5;" x1="40" x2="64" y1="165.7944" y2="165.7944"/><line style="stroke:#181818;stroke-width:1.5;" x1="174" x2="220" y1="165.7944" y2="165.7944"/><rect fill="none" height="29.0654" style="stroke:#181818;stroke-width:0.5;" width="132" x="64" y="190.3271"/><text fill="#000000" font-family="Open Sans" font-size="14" lengthAdjust="spacing" textLength="122" x="69" y="210.291">Conditional action</text><line style="stroke:#181818;stroke-width:1.5;" x1="196" x2="196" y1="204.8599" y2="204.8599"/><path d="M52,192.8599 C52,201.8599 55,204.8599 64,204.8599 " fill="none" style="stroke:#181818;stroke-width:1.5;"/><line style="stroke:#181818;stroke-width:1.5;" x1="52" x2="52" y1="177.7944" y2="192.8599"/><path d="M40,165.7944 C49,165.7944 52,168.7944 52,177.7944 " fill="none" style="stroke:#181818;stroke-width:1.5;"/><path d="M208,192.8599 C208,201.8599 205,204.8599 196,204.8599 " fill="none" style="stroke:#181818;stroke-width:1.5;"/><line style="stroke:#181818;stroke-width:1.5;" x1="208" x2="208" y1="177.7944" y2="192.8599"/><path d="M208,177.7944 C208,168.7944 211,165.7944 220,165.7944 " fill="none" style="stroke:#181818;stroke-width:1.5;"/><line style="stroke:#181818;stroke-width:1.5;" x1="220" x2="240" y1="165.7944" y2="165.7944"/><rect fill="none" height="29.0654" style="stroke:#181818;stroke-width:0.5;" width="15" x="240" y="151.2617"/><text fill="#000000" font-family="Open Sans" font-size="14" lengthAdjust="spacing" textLength="5" x="245" y="171.2256">[</text><line style="stroke:#181818;stroke-width:1.5;" x1="255" x2="275" y1="165.7944" y2="165.7944"/><rect fill="#F1F1F1" height="29.0654" rx="5" ry="5" style="stroke:#181818;stroke-width:1.5;" width="45" x="275" y="151.2617"/><text fill="#000000" font-family="Open Sans" font-size="14" lengthAdjust="spacing" textLength="35" x="280" y="171.2256">issue</text><line style="stroke:#181818;stroke-width:1.5;" x1="320" x2="340" y1="165.7944" y2="165.7944"/><rect fill="none" height="29.0654" style="stroke:#181818;stroke-width:0.5;" width="19" x="340" y="151.2617"/><text fill="#000000" font-family="Open Sans" font-size="14" lengthAdjust="spacing" textLength="9" x="345" y="171.2256">]:</text><line style="stroke:#181818;stroke-width:1.5;" x1="359" x2="379" y1="165.7944" y2="165.7944"/><rect fill="#F1F1F1" height="29.0654" rx="5" ry="5" style="stroke:#181818;stroke-width:1.5;" width="86" x="379" y="151.2617"/><text fill="#000000" font-family="Open Sans" font-size="14" lengthAdjust="spacing" textLength="76" x="384" y="171.2256">description</text><ellipse cx="14" cy="165.7944" fill="none" rx="4" ry="4" style="stroke:#181818;stroke-width:2.0;"/><ellipse cx="495" cy="165.7944" fill="#181818" rx="4" ry="4" style="stroke:#181818;stroke-width:1.0;"/><line style="stroke:#181818;stroke-width:1.5;" x1="18" x2="40" y1="165.7944" y2="165.7944"/><line style="stroke:#181818;stroke-width:1.5;" x1="465" x2="491" y1="165.7944" y2="165.7944"/><path d="M476,165.7944 L476,162.7944 L482,165.7944 L476,168.7944 L476,165.7944 " fill="#181818" style="stroke:#181818;stroke-width:1.5;"/><text fill="#000000" font-family="Open Sans" font-size="14" font-weight="bold" lengthAdjust="spacing" textLength="149" x="10" y="249.3564">child-issue-resolution</text><line style="stroke:#181818;stroke-width:1.5;" x1="40" x2="40" y1="277.9907" y2="277.9907"/><rect fill="none" height="29.0654" style="stroke:#181818;stroke-width:0.5;" width="61" x="40" y="263.458"/><text fill="#000000" font-family="Open Sans" font-size="14" lengthAdjust="spacing" textLength="51" x="45" y="283.4219">Resolve</text><line style="stroke:#181818;stroke-width:1.5;" x1="101" x2="121" y1="277.9907" y2="277.9907"/><rect fill="none" height="29.0654" style="stroke:#181818;stroke-width:0.5;" width="111" x="145" y="263.458"/><text fill="#000000" font-family="Open Sans" font-size="14" lengthAdjust="spacing" textLength="101" x="150" y="283.4219">pending action</text><line style="stroke:#181818;stroke-width:1.5;" x1="121" x2="145" y1="277.9907" y2="277.9907"/><line style="stroke:#181818;stroke-width:1.5;" x1="256" x2="299" y1="277.9907" y2="277.9907"/><rect fill="none" height="29.0654" style="stroke:#181818;stroke-width:0.5;" width="130" x="145" y="302.5234"/><text fill="#000000" font-family="Open Sans" font-size="14" lengthAdjust="spacing" textLength="120" x="150" y="322.4873">conditional action</text><line style="stroke:#181818;stroke-width:1.5;" x1="275" x2="275" y1="317.0562" y2="317.0562"/><path d="M133,305.0562 C133,314.0562 136,317.0562 145,317.0562 " fill="none" style="stroke:#181818;stroke-width:1.5;"/><line style="stroke:#181818;stroke-width:1.5;" x1="133" x2="133" y1="289.9907" y2="305.0562"/><path d="M121,277.9907 C130,277.9907 133,280.9907 133,289.9907 " fill="none" style="stroke:#181818;stroke-width:1.5;"/><path d="M287,305.0562 C287,314.0562 284,317.0562 275,317.0562 " fill="none" style="stroke:#181818;stroke-width:1.5;"/><line style="stroke:#181818;stroke-width:1.5;" x1="287" x2="287" y1="289.9907" y2="305.0562"/><path d="M287,289.9907 C287,280.9907 290,277.9907 299,277.9907 " fill="none" style="stroke:#181818;stroke-width:1.5;"/><line style="stroke:#181818;stroke-width:1.5;" x1="299" x2="319" y1="277.9907" y2="277.9907"/><rect fill="none" height="29.0654" style="stroke:#181818;stroke-width:0.5;" width="22" x="319" y="263.458"/><text fill="#000000" font-family="Open Sans" font-size="14" lengthAdjust="spacing" textLength="12" x="324" y="283.4219">...</text><ellipse cx="14" cy="277.9907" fill="none" rx="4" ry="4" style="stroke:#181818;stroke-width:2.0;"/><ellipse cx="371" cy="277.9907" fill="#181818" rx="4" ry="4" style="stroke:#181818;stroke-width:1.0;"/><line style="stroke:#181818;stroke-width:1.5;" x1="18" x2="40" y1="277.9907" y2="277.9907"/><line style="stroke:#181818;stroke-width:1.5;" x1="341" x2="367" y1="277.9907" y2="277.9907"/><path d="M352,277.9907 L352,274.9907 L358,277.9907 L352,280.9907 L352,277.9907 " fill="#181818" style="stroke:#181818;stroke-width:1.5;"/><!--SRC=[RP7BQiCm44Nt-ef1AmTYqpYXj0w5F1jm4nhosfGk57kIYjfZeuUXq8-lv11AQ7VIdNlFZ4OZROGoUAGJqv-IQg542JcUX2tCgI93eaJWhpKIR0Lfph8FMUIXrDfYQAGf49uWuEinXs_Wqp7lT84dl0jjRNXZpnmFoLm2IBcaCuZCo8ekuSf9_YQAg-nXRmxMvjtvtPDpr9cIjJVSyXNggh1UTotunjyQT860rt-xPVztYwA83zd8-TkTi7KXoEnNIsXGQK_kHV5Tt8yUWvr5IAqJ-j0R974lYGSmd-t0bpiiMAoNe2khCeHSQgFaiPsimrBH2DXOChB41FncqzdBLO0vDL9LLBeziVIm-ZNS3yA9DB15vIQ1muhDBf_a4bdb7vV0VlSSFh2beBCLPyT6OjFASTLN0el93m00]--></g></svg>