<?xml version="1.0" encoding="us-ascii" standalone="no"?><svg xmlns="http://www.w3.org/2000/svg" xmlns:xlink="http://www.w3.org/1999/xlink" contentStyleType="text/css" height="519px" preserveAspectRatio="none" style="width:530px;height:519px;background:#FFFFFF;" version="1.1" viewBox="0 0 530 519" width="530px" zoomAndPan="magnify"><defs/><g><text fill="#000000" font-family="Open Sans" font-size="14" font-weight="bold" lengthAdjust="spacing" textLength="67" x="10" y="24.9639">comment</text><line style="stroke:#181818;stroke-width:1.5;" x1="64" x2="64" y1="69.5981" y2="69.5981"/><rect fill="none" height="29.0654" style="stroke:#181818;stroke-width:0.5;" width="55" x="88" y="55.0654"/><text fill="#000000" font-family="Open Sans" font-size="14" lengthAdjust="spacing" textLength="45" x="93" y="75.0293">Accept</text><line style="stroke:#181818;stroke-width:1.5;" x1="64" x2="88" y1="69.5981" y2="69.5981"/><line style="stroke:#181818;stroke-width:1.5;" x1="143" x2="173" y1="69.5981" y2="69.5981"/><rect fill="none" height="29.0654" style="stroke:#181818;stroke-width:0.5;" width="61" x="88" y="94.1309"/><text fill="#000000" font-family="Open Sans" font-size="14" lengthAdjust="spacing" textLength="51" x="93" y="114.0947">Resolve</text><line style="stroke:#181818;stroke-width:1.5;" x1="149" x2="149" y1="108.6636" y2="108.6636"/><path d="M76,96.6636 C76,105.6636 79,108.6636 88,108.6636 " fill="none" style="stroke:#181818;stroke-width:1.5;"/><line style="stroke:#181818;stroke-width:1.5;" x1="76" x2="76" y1="81.5981" y2="96.6636"/><path d="M64,69.5981 C73,69.5981 76,72.5981 76,81.5981 " fill="none" style="stroke:#181818;stroke-width:1.5;"/><path d="M161,96.6636 C161,105.6636 158,108.6636 149,108.6636 " fill="none" style="stroke:#181818;stroke-width:1.5;"/><line style="stroke:#181818;stroke-width:1.5;" x1="161" x2="161" y1="81.5981" y2="96.6636"/><path d="M161,81.5981 C161,72.5981 164,69.5981 173,69.5981 " fill="none" style="stroke:#181818;stroke-width:1.5;"/><line style="stroke:#181818;stroke-width:1.5;" x1="173" x2="193" y1="69.5981" y2="69.5981"/><path d="M201,61.5981 C201,67.5981 199,69.5981 193,69.5981 " fill="none" style="stroke:#181818;stroke-width:1.5;"/><line style="stroke:#181818;stroke-width:1.5;" x1="201" x2="201" y1="52.0654" y2="61.5981"/><path d="M201,52.0654 C201,46.0654 203,44.0654 209,44.0654 " fill="none" style="stroke:#181818;stroke-width:1.5;"/><line style="stroke:#181818;stroke-width:1.5;" x1="209" x2="262" y1="44.0654" y2="44.0654"/><path d="M228.2,44.0654 L228.2,41.0654 L234.2,44.0654 L228.2,47.0654 L228.2,44.0654 " fill="#181818" style="stroke:#181818;stroke-width:1.5;"/><path d="M270,61.5981 C270,67.5981 272,69.5981 278,69.5981 " fill="none" style="stroke:#181818;stroke-width:1.5;"/><line style="stroke:#181818;stroke-width:1.5;" x1="270" x2="270" y1="52.0654" y2="61.5981"/><path d="M262,44.0654 C268,44.0654 270,46.0654 270,52.0654 " fill="none" style="stroke:#181818;stroke-width:1.5;"/><line style="stroke:#181818;stroke-width:1.5;" x1="193" x2="208" y1="69.5981" y2="69.5981"/><line style="stroke:#181818;stroke-width:1.5;" x1="263" x2="278" y1="69.5981" y2="69.5981"/><rect fill="none" height="29.0654" style="stroke:#181818;stroke-width:0.5;" width="55" x="208" y="55.0654"/><text fill="#000000" font-family="Open Sans" font-size="14" lengthAdjust="spacing" textLength="45" x="213" y="75.0293">in part</text><line style="stroke:#181818;stroke-width:1.5;" x1="278" x2="298" y1="69.5981" y2="69.5981"/><path d="M306,61.5981 C306,67.5981 304,69.5981 298,69.5981 " fill="none" style="stroke:#181818;stroke-width:1.5;"/><line style="stroke:#181818;stroke-width:1.5;" x1="306" x2="306" y1="52.0654" y2="61.5981"/><path d="M306,52.0654 C306,46.0654 308,44.0654 314,44.0654 " fill="none" style="stroke:#181818;stroke-width:1.5;"/><line style="stroke:#181818;stroke-width:1.5;" x1="314" x2="445" y1="44.0654" y2="44.0654"/><path d="M364.4,44.0654 L364.4,41.0654 L370.4,44.0654 L364.4,47.0654 L364.4,44.0654 " fill="#181818" style="stroke:#181818;stroke-width:1.5;"/><path d="M453,61.5981 C453,67.5981 455,69.5981 461,69.5981 " fill="none" style="stroke:#181818;stroke-width:1.5;"/><line style="stroke:#181818;stroke-width:1.5;" x1="453" x2="453" y1="52.0654" y2="61.5981"/><path d="M445,44.0654 C451,44.0654 453,46.0654 453,52.0654 " fill="none" style="stroke:#181818;stroke-width:1.5;"/><line style="stroke:#181818;stroke-width:1.5;" x1="298" x2="313" y1="69.5981" y2="69.5981"/><line style="stroke:#181818;stroke-width:1.5;" x1="446" x2="461" y1="69.5981" y2="69.5981"/><line style="stroke:#181818;stroke-width:1.5;" x1="313" x2="313" y1="69.5981" y2="69.5981"/><rect fill="none" height="29.0654" style="stroke:#181818;stroke-width:0.5;" width="39" x="313" y="55.0654"/><text fill="#000000" font-family="Open Sans" font-size="14" lengthAdjust="spacing" textLength="29" x="318" y="75.0293">with</text><line style="stroke:#181818;stroke-width:1.5;" x1="352" x2="372" y1="69.5981" y2="69.5981"/><rect fill="#F1F1F1" height="29.0654" rx="5" ry="5" style="stroke:#181818;stroke-width:1.5;" width="74" x="372" y="55.0654"/><text fill="#000000" font-family="Open Sans" font-size="14" lengthAdjust="spacing" textLength="64" x="377" y="75.0293">modifiers</text><line style="stroke:#181818;stroke-width:1.5;" x1="40" x2="64" y1="69.5981" y2="69.5981"/><line style="stroke:#181818;stroke-width:1.5;" x1="461" x2="485" y1="69.5981" y2="69.5981"/><line style="stroke:#181818;stroke-width:1.5;" x1="64" x2="64" y1="147.729" y2="147.729"/><rect fill="none" height="29.0654" style="stroke:#181818;stroke-width:0.5;" width="94" x="64" y="133.1963"/><text fill="#000000" font-family="Open Sans" font-size="14" lengthAdjust="spacing" textLength="84" x="69" y="153.1602">Not planned</text><line style="stroke:#181818;stroke-width:1.5;" x1="158" x2="178" y1="147.729" y2="147.729"/><rect fill="#F1F1F1" height="29.0654" rx="5" ry="5" style="stroke:#181818;stroke-width:1.5;" width="56" x="178" y="133.1963"/><text fill="#000000" font-family="Open Sans" font-size="14" lengthAdjust="spacing" textLength="46" x="183" y="153.1602">reason</text><path d="M52,135.729 C52,144.729 55,147.729 64,147.729 " fill="none" style="stroke:#181818;stroke-width:1.5;"/><line style="stroke:#181818;stroke-width:1.5;" x1="234" x2="461" y1="147.729" y2="147.729"/><path d="M345.5,147.729 L345.5,144.729 L351.5,147.729 L345.5,150.729 L345.5,147.729 " fill="#181818" style="stroke:#181818;stroke-width:1.5;"/><path d="M473,135.729 C473,144.729 470,147.729 461,147.729 " fill="none" style="stroke:#181818;stroke-width:1.5;"/><rect fill="#F1F1F1" height="29.0654" rx="5" ry="5" style="stroke:#181818;stroke-width:1.5;" width="73" x="64" y="172.2617"/><text fill="#000000" font-family="Open Sans" font-size="14" lengthAdjust="spacing" textLength="63" x="69" y="192.2256">comment</text><line style="stroke:#181818;stroke-width:1.5;" x1="137" x2="461" y1="186.7944" y2="186.7944"/><path d="M297,186.7944 L297,183.7944 L303,186.7944 L297,189.7944 L297,186.7944 " fill="#181818" style="stroke:#181818;stroke-width:1.5;"/><path d="M52,174.7944 C52,183.7944 55,186.7944 64,186.7944 " fill="none" style="stroke:#181818;stroke-width:1.5;"/><line style="stroke:#181818;stroke-width:1.5;" x1="52" x2="52" y1="81.5981" y2="174.7944"/><path d="M40,69.5981 C49,69.5981 52,72.5981 52,81.5981 " fill="none" style="stroke:#181818;stroke-width:1.5;"/><path d="M473,174.7944 C473,183.7944 470,186.7944 461,186.7944 " fill="none" style="stroke:#181818;stroke-width:1.5;"/><line style="stroke:#181818;stroke-width:1.5;" x1="473" x2="473" y1="81.5981" y2="174.7944"/><path d="M473,81.5981 C473,72.5981 476,69.5981 485,69.5981 " fill="none" style="stroke:#181818;stroke-width:1.5;"/><ellipse cx="14" cy="69.5981" fill="none" rx="4" ry="4" style="stroke:#181818;stroke-width:2.0;"/><ellipse cx="515" cy="69.5981" fill="#181818" rx="4" ry="4" style="stroke:#181818;stroke-width:1.0;"/><line style="stroke:#181818;stroke-width:1.5;" x1="18" x2="40" y1="69.5981" y2="69.5981"/><line style="stroke:#181818;stroke-width:1.5;" x1="485" x2="511" y1="69.5981" y2="69.5981"/><path d="M496,69.5981 L496,66.5981 L502,69.5981 L496,72.5981 L496,69.5981 " fill="#181818" style="stroke:#181818;stroke-width:1.5;"/><text fill="#000000" font-family="Open Sans" font-size="14" font-weight="bold" lengthAdjust="spacing" textLength="66" x="10" y="231.291">modifiers</text><line style="stroke:#181818;stroke-width:1.5;" x1="40" x2="40" y1="287.9253" y2="287.9253"/><rect fill="#F1F1F1" height="29.0654" rx="5" ry="5" style="stroke:#181818;stroke-width:1.5;" width="67" x="40" y="273.3926"/><text fill="#000000" font-family="Open Sans" font-size="14" lengthAdjust="spacing" textLength="57" x="45" y="293.3564">modifier</text><line style="stroke:#181818;stroke-width:1.5;" x1="107" x2="127" y1="287.9253" y2="287.9253"/><path d="M135,279.9253 C135,285.9253 133,287.9253 127,287.9253 " fill="none" style="stroke:#181818;stroke-width:1.5;"/><line style="stroke:#181818;stroke-width:1.5;" x1="135" x2="135" y1="258.3926" y2="279.9253"/><path d="M135,258.3926 C135,252.3926 137,250.3926 143,250.3926 " fill="none" style="stroke:#181818;stroke-width:1.5;"/><line style="stroke:#181818;stroke-width:1.5;" x1="143" x2="272" y1="250.3926" y2="250.3926"/><path d="M192.6,250.3926 L192.6,247.3926 L198.6,250.3926 L192.6,253.3926 L192.6,250.3926 " fill="#181818" style="stroke:#181818;stroke-width:1.5;"/><path d="M280,279.9253 C280,285.9253 282,287.9253 288,287.9253 " fill="none" style="stroke:#181818;stroke-width:1.5;"/><line style="stroke:#181818;stroke-width:1.5;" x1="280" x2="280" y1="258.3926" y2="279.9253"/><path d="M272,250.3926 C278,250.3926 280,252.3926 280,258.3926 " fill="none" style="stroke:#181818;stroke-width:1.5;"/><line style="stroke:#181818;stroke-width:1.5;" x1="127" x2="142" y1="287.9253" y2="287.9253"/><line style="stroke:#181818;stroke-width:1.5;" x1="273" x2="288" y1="287.9253" y2="287.9253"/><path d="M150,279.9253 C150,285.9253 152,287.9253 158,287.9253 " fill="none" style="stroke:#181818;stroke-width:1.5;"/><line style="stroke:#181818;stroke-width:1.5;" x1="150" x2="150" y1="274.3926" y2="279.9253"/><path d="M150,274.3926 C150,268.3926 152,266.3926 158,266.3926 " fill="none" style="stroke:#181818;stroke-width:1.5;"/><line style="stroke:#181818;stroke-width:1.5;" x1="157" x2="258" y1="266.3926" y2="266.3926"/><path d="M215.6,266.3926 L215.6,263.3926 L209.6,266.3926 L215.6,269.3926 L215.6,266.3926 " fill="#181818" style="stroke:#181818;stroke-width:1.5;"/><path d="M265,279.9253 C265,285.9253 263,287.9253 257,287.9253 " fill="none" style="stroke:#181818;stroke-width:1.5;"/><line style="stroke:#181818;stroke-width:1.5;" x1="265" x2="265" y1="274.3926" y2="279.9253"/><path d="M257,266.3926 C263,266.3926 265,268.3926 265,274.3926 " fill="none" style="stroke:#181818;stroke-width:1.5;"/><line style="stroke:#181818;stroke-width:1.5;" x1="142" x2="157" y1="287.9253" y2="287.9253"/><line style="stroke:#181818;stroke-width:1.5;" x1="258" x2="273" y1="287.9253" y2="287.9253"/><line style="stroke:#181818;stroke-width:1.5;" x1="157" x2="157" y1="287.9253" y2="287.9253"/><rect fill="none" height="29.0654" style="stroke:#181818;stroke-width:0.5;" width="14" x="157" y="273.3926"/><text fill="#000000" font-family="Open Sans" font-size="14" lengthAdjust="spacing" textLength="4" x="162" y="293.3564">,</text><line style="stroke:#181818;stroke-width:1.5;" x1="171" x2="191" y1="287.9253" y2="287.9253"/><rect fill="#F1F1F1" height="29.0654" rx="5" ry="5" style="stroke:#181818;stroke-width:1.5;" width="67" x="191" y="273.3926"/><text fill="#000000" font-family="Open Sans" font-size="14" lengthAdjust="spacing" textLength="57" x="196" y="293.3564">modifier</text><ellipse cx="14" cy="287.9253" fill="none" rx="4" ry="4" style="stroke:#181818;stroke-width:2.0;"/><ellipse cx="318" cy="287.9253" fill="#181818" rx="4" ry="4" style="stroke:#181818;stroke-width:1.0;"/><line style="stroke:#181818;stroke-width:1.5;" x1="18" x2="40" y1="287.9253" y2="287.9253"/><line style="stroke:#181818;stroke-width:1.5;" x1="288" x2="314" y1="287.9253" y2="287.9253"/><path d="M299,287.9253 L299,284.9253 L305,287.9253 L299,290.9253 L299,287.9253 " fill="#181818" style="stroke:#181818;stroke-width:1.5;"/><text fill="#000000" font-family="Open Sans" font-size="14" font-weight="bold" lengthAdjust="spacing" textLength="59" x="10" y="332.4219">modifier</text><rect fill="none" height="29.0654" style="stroke:#181818;stroke-width:0.5;" width="59" x="64" y="346.5234"/><text fill="#000000" font-family="Open Sans" font-size="14" lengthAdjust="spacing" textLength="49" x="69" y="366.4873">priority</text><line style="stroke:#181818;stroke-width:1.5;" x1="40" x2="64" y1="361.0562" y2="361.0562"/><line style="stroke:#181818;stroke-width:1.5;" x1="123" x2="200" y1="361.0562" y2="361.0562"/><rect fill="none" height="29.0654" style="stroke:#181818;stroke-width:0.5;" width="66" x="64" y="385.5889"/><text fill="#000000" font-family="Open Sans" font-size="14" lengthAdjust="spacing" textLength="56" x="69" y="405.5527">action(s)</text><path d="M52,388.1216 C52,397.1216 55,400.1216 64,400.1216 " fill="none" style="stroke:#181818;stroke-width:1.5;"/><line style="stroke:#181818;stroke-width:1.5;" x1="130" x2="176" y1="400.1216" y2="400.1216"/><path d="M151,400.1216 L151,397.1216 L157,400.1216 L151,403.1216 L151,400.1216 " fill="#181818" style="stroke:#181818;stroke-width:1.5;"/><path d="M188,388.1216 C188,397.1216 185,400.1216 176,400.1216 " fill="none" style="stroke:#181818;stroke-width:1.5;"/><rect fill="none" height="29.0654" style="stroke:#181818;stroke-width:0.5;" width="112" x="64" y="424.6543"/><text fill="#000000" font-family="Open Sans" font-size="14" lengthAdjust="spacing" textLength="102" x="69" y="444.6182">future action(s)</text><path d="M52,427.187 C52,436.187 55,439.187 64,439.187 " fill="none" style="stroke:#181818;stroke-width:1.5;"/><line style="stroke:#181818;stroke-width:1.5;" x1="176" x2="176" y1="439.187" y2="439.187"/><path d="M188,427.187 C188,436.187 185,439.187 176,439.187 " fill="none" style="stroke:#181818;stroke-width:1.5;"/><rect fill="none" height="29.0654" style="stroke:#181818;stroke-width:0.5;" width="109" x="64" y="463.7197"/><text fill="#000000" font-family="Open Sans" font-size="14" lengthAdjust="spacing" textLength="99" x="69" y="483.6836">modification(s)</text><line style="stroke:#181818;stroke-width:1.5;" x1="173" x2="176" y1="478.2524" y2="478.2524"/><path d="M52,466.2524 C52,475.2524 55,478.2524 64,478.2524 " fill="none" style="stroke:#181818;stroke-width:1.5;"/><line style="stroke:#181818;stroke-width:1.5;" x1="52" x2="52" y1="373.0562" y2="466.2524"/><path d="M40,361.0562 C49,361.0562 52,364.0562 52,373.0562 " fill="none" style="stroke:#181818;stroke-width:1.5;"/><path d="M188,466.2524 C188,475.2524 185,478.2524 176,478.2524 " fill="none" style="stroke:#181818;stroke-width:1.5;"/><line style="stroke:#181818;stroke-width:1.5;" x1="188" x2="188" y1="373.0562" y2="466.2524"/><path d="M188,373.0562 C188,364.0562 191,361.0562 200,361.0562 " fill="none" style="stroke:#181818;stroke-width:1.5;"/><ellipse cx="14" cy="361.0562" fill="none" rx="4" ry="4" style="stroke:#181818;stroke-width:2.0;"/><ellipse cx="230" cy="361.0562" fill="#181818" rx="4" ry="4" style="stroke:#181818;stroke-width:1.0;"/><line style="stroke:#181818;stroke-width:1.5;" x1="18" x2="40" y1="361.0562" y2="361.0562"/><line style="stroke:#181818;stroke-width:1.5;" x1="200" x2="226" y1="361.0562" y2="361.0562"/><path d="M211,361.0562 L211,358.0562 L217,361.0562 L211,364.0562 L211,361.0562 " fill="#181818" style="stroke:#181818;stroke-width:1.5;"/><!--SRC=[RL7BJiCm4BpxArO-9L90eQqg58H4ImkYj83wu89wCCccM3JhoDu48U3VSKfRYeHFzixipEpwmh6oZC-K2_UggLHM5P1XhgervuQOL84Wxqiac2boKgIcA90OpY48P2zDiMG9do2dwCowHXb6861xdgGcy98ibv5_l6b-aH4K9jEvHkkM6wBllJCCvLeHOUPnYyePsc9Rk_1CY7sVzzxT8_YGqO7crm6lYRYF8akhZTNyBlSbRwnIreO25_wfvXLN5k5_y4SzLJkiINQ1b6rMA1xy5BoOZA7sEJq3JevRSQjpt0bcYg5NMeYxS18dxNRIYc4uc4C3XoAOtCp1cSgc29bsRFLprJY4OgHg1TEAM1UOGFCHey7jhW13ghKrrAn8Z1udluHkvwYl6MPeVH9ud8Z1pv_wZjHFGAi45lEherCnLhIgrCfh8ubButNjUmBN_My0]--></g></svg>